# xmcd CD database file
#
# Track frame offsets:
#	150
#	20363
#	44288
#
# Disc length: 857 seconds
#
# Revision: 0
# Processed by: cddbd v1.5.1PL0 Copyright (c) Steve Scherf et al.
# Submitted via: CDex 1.51
#
DISCID=1a035703
DTITLE=Naja - めまい
DYEAR=1900
DGENRE=ポップ (一般)
TTITLE0=めまい
TTITLE1=ひとさじのはちみつ
TTITLE2=めまい（inst.）
EXTD=
EXTT0=
EXTT1=
EXTT2=
PLAYORDER=
